<?xml version="1.0" encoding="UTF-8" standalone="no"?>
<!-- Created with Inkscape (http://www.inkscape.org/) -->

<svg
   width="92.697006mm"
   height="99.380859mm"
   viewBox="0 0 92.697006 99.380859"
   version="1.1"
   id="svg1670"
   inkscape:version="1.2.1 (9c6d41e410, 2022-07-14, custom)"
   sodipodi:docname="mka.svg"
   xmlns:inkscape="http://www.inkscape.org/namespaces/inkscape"
   xmlns:sodipodi="http://sodipodi.sourceforge.net/DTD/sodipodi-0.dtd"
   xmlns="http://www.w3.org/2000/svg"
   xmlns:svg="http://www.w3.org/2000/svg">
  <sodipodi:namedview
     id="namedview1672"
     pagecolor="#505050"
     bordercolor="#eeeeee"
     borderopacity="1"
     inkscape:showpageshadow="0"
     inkscape:pageopacity="0"
     inkscape:pagecheckerboard="0"
     inkscape:deskcolor="#505050"
     inkscape:document-units="mm"
     showgrid="false"
     inkscape:zoom="0.50244108"
     inkscape:cx="59.708494"
     inkscape:cy="368.20238"
     inkscape:window-width="1348"
     inkscape:window-height="720"
     inkscape:window-x="7"
     inkscape:window-y="37"
     inkscape:window-maximized="1"
     inkscape:current-layer="layer1" />
  <defs
     id="defs1667" />
  <g
     inkscape:label="Layer 1"
     inkscape:groupmode="layer"
     id="layer1"
     transform="translate(-52.651497,-50.889364)">
    <g
       aria-label="Marty"
       id="text113-3"
       style="font-size:105.833px;fill:#040b4c;stroke:#990e13;stroke-width:26.2509;stroke-linecap:round;stroke-linejoin:round;paint-order:stroke fill markers"
       transform="matrix(0.83175664,0,0,1,-23.512718,34.33077)"
       inkscape:export-filename="mka_logo.png"
       inkscape:export-xdpi="96"
       inkscape:export-ydpi="96">
      <g
         id="path270-6">
        <path
           style="color:#000000;-inkscape-font-specification:'Erica One';fill:#990e13;stroke:none;-inkscape-stroke:none"
           d="m 104.69531,16.558594 c -7.248334,9.73e-4 -13.124026,5.876666 -13.124998,13.125 v 73.130856 c 9.72e-4,7.24833 5.876664,13.12403 13.124998,13.125 0,0 84.88216,-0.12107 85.19727,0 7.24833,-9.7e-4 13.12403,-5.87667 13.125,-13.125 V 29.683594 c -9.7e-4,-7.248335 -5.87667,-13.124028 -13.125,-13.125 0,0 -84.63005,0.21325 -85.19727,0 z m 13.12696,26.25 h 13.93164 l 1.8125,5.240234 c 1.82899,5.287996 6.80893,8.835349 12.40429,8.835938 h 2.75196 c 5.66,-3.99e-4 10.6824,-3.628653 12.46093,-9.001954 l 1.67774,-5.074218 h 13.90429 V 89.689453 H 166.50391 V 76.355469 c -0.13179,-9.737118 -10.44739,-15.94587 -19.11329,-11.503907 -8.73995,-4.768758 -19.39951,1.547622 -19.41406,11.503907 v 13.333984 h -10.15429 z"
           id="path1582"
           sodipodi:nodetypes="cccccccccccsccccccccccccc" />
        <path
           style="color:#000000;-inkscape-font-specification:'Erica One';stroke:#f0f0f0;stroke-width:8.81681897;stroke-opacity:1;stroke-dasharray:none"
           d="m 189.89166,29.68356 v 73.1306 H 153.37927 V 76.355913 l -4.65665,12.276628 h -2.75166 l -4.86831,-12.276628 v 26.458247 h -36.40656 v -73.1306 h 36.40656 l 4.86831,14.075789 h 2.75166 l 4.65665,-14.075789 z"
           id="path1584" />
      </g>
    </g>
  </g>
</svg>
